<svg xmlns="http://www.w3.org/2000/svg" viewBox="0 0 892.6 431.87"><defs><style>.cls-1{fill:#ea4335;}.cls-2{fill:#4285f4;}.cls-3{fill:#fbbc04;}.cls-4{fill:#0f9d58;}</style></defs><title>Asset 390</title><g id="Layer_2" data-name="Layer 2"><g id="Layer_1-2" data-name="Layer 1"><path class="cls-1" d="M212.51,216.78,357.45,133.1A71.32,71.32,0,1,0,286.14,9.57L35.67,154.17Z"/><path class="cls-2" d="M321.73,431.87a71.32,71.32,0,0,0,35.72-133.09L107,154.17A71.32,71.32,0,0,0,35.67,277.7L286.14,422.31A71,71,0,0,0,321.73,431.87Z"/><path class="cls-3" d="M570.87,431.87a71.08,71.08,0,0,0,35.6-9.56L856.93,277.7,682.34,213.8l-147.19,85a71.32,71.32,0,0,0,35.72,133.09Z"/><path class="cls-4" d="M821.2,287.27a71.33,71.33,0,0,0,35.73-133.1L606.47,9.57A71.32,71.32,0,1,0,535.15,133.1L785.61,277.7A70.92,70.92,0,0,0,821.2,287.27Z"/></g></g></svg>