<svg xmlns="http://www.w3.org/2000/svg" viewBox="0 0 799.66 428.41"><defs><style>.cls-1{fill:#ea4335;}.cls-2{fill:#4285f4;}.cls-3{fill:#34a853;}.cls-4{fill:#fbbc05;}.cls-5{fill:#139f5b;}.cls-6{fill:#ffc109;}.cls-7{fill:#dd5044;}.cls-8{fill:#4688f4;}.cls-9{opacity:0.06;}</style></defs><title>Asset 100</title><g id="Layer_2" data-name="Layer 2"><g id="Layer_1-2" data-name="Layer 1"><path class="cls-1" d="M338.73,118.31l17,.29,46.29-46.29,2.23-19.62C318.5-23.66,187.06-16,110.7,69.77a208.09,208.09,0,0,0-45.42,84c5.06-3.53,15.86-.88,15.86-.88l92.53-15.22s4.75-7.87,7.16-7.4a115.38,115.38,0,0,1,158-11.75Z"/><path class="cls-2" d="M467.09,153.91a208.45,208.45,0,0,0-62.8-101.22l-65.56,65.56a115.42,115.42,0,0,1,43.12,89.93v11.75a57.81,57.81,0,0,1,0,115.61H266.19l-11.75,11.75v69.37l11.75,11.75h115.6a150.26,150.26,0,0,0,85.3-274Z"/><path class="cls-3" d="M150.52,427.94H266.07V335.42H150.52a57.27,57.27,0,0,1-23.79-5.17l-16.68,5.11L63.76,381.65l-4,15.33a149.6,149.6,0,0,0,90.76,31Z"/><path class="cls-4" d="M150.52,127.3A150.26,150.26,0,0,0,59.76,397.51l67-67.26a57.8,57.8,0,1,1,76.36-76.36l67-67A150.13,150.13,0,0,0,150.52,127.3Z"/><path class="cls-5" d="M534.33,418.21,686.72,144l56.42,31.35L603.85,428h-63.8A6.55,6.55,0,0,1,534.33,418.21Z"/><path class="cls-6" d="M603.85,428l97.72-177.56L758,281.75,682.48,421.1A13.1,13.1,0,0,1,671,428Z"/><path class="cls-7" d="M765.91,275.25,607,0h67.18a13.08,13.08,0,0,1,11.31,6.51l109.93,189a31.3,31.3,0,0,1-.34,32Z"/><path class="cls-8" d="M727,338.88,537.92,9.81A6.54,6.54,0,0,1,543.59,0H607L765.92,275.24Z"/><polygon class="cls-9" points="727.03 338.88 635.31 236.52 651.48 207.42 727.03 338.88"/></g></g></svg>