<svg xmlns="http://www.w3.org/2000/svg" viewBox="0 0 258.52 219.81"><defs><style>.cls-1{fill:#4285f4;}.cls-2{fill:#00bfa5;}.cls-3{fill:#1ce9b6;}.cls-4{fill:#4fc3f7;}</style></defs><title>Asset 110</title><g id="Layer_2" data-name="Layer 2"><g id="Layer_1-2" data-name="Layer 1"><rect class="cls-1" x="49.21" y="44.88" width="40.05" height="130.03"/><rect class="cls-2" x="169.03" y="44.88" width="40.29" height="130.03"/><polygon class="cls-3" points="169.27 174.92 209.31 174.92 149.41 64.58 109.36 64.58 169.27 174.92"/><polygon class="cls-4" points="89.25 174.92 49.2 174.92 109.11 64.58 149.16 64.58 89.25 174.92"/><path class="cls-1" d="M25.66,194.65v-169H69.49V0H10.11A10.14,10.14,0,0,0,0,10.1V208.63c0,5.56,4.55,11.18,10.11,11.18H69.49V194.65Z"/><path class="cls-2" d="M232.86,194.65v-169H189V0h59.39a10.14,10.14,0,0,1,10.1,10.1V208.63c0,5.56-4.55,11.18-10.1,11.18H189V194.65Z"/></g></g></svg>